<svg enable-background="new 0 0 512 283.78" viewBox="0 0 512 283.78" xmlns="http://www.w3.org/2000/svg"><path d="m256.03 131.5c13.51 0 24.48 3.45 24.48 7.7 0 4.26-10.96 7.69-24.48 7.69s-24.48-3.44-24.48-7.69c.01-4.25 10.96-7.7 24.48-7.7m-53.56-68.92c.67 0 1.32-.1 1.94-.26l22.22 75.55h.01c2.48 8.44 14.75 14.83 29.53 14.83s27.05-6.39 29.53-14.83h.01l22.2-75.49c.55.12 1.12.21 1.7.21 4.31 0 7.81-3.5 7.81-7.83 0-4.3-3.5-7.81-7.81-7.81s-7.82 3.51-7.82 7.81c0 3.12 1.82 5.79 4.44 7.04l-25.74 55.19 4.14-74.36h.18c4.31 0 7.81-3.49 7.81-7.8 0-4.32-3.5-7.81-7.81-7.81-4.32 0-7.82 3.5-7.82 7.81 0 3.56 2.4 6.55 5.64 7.5l-17.13 72.68-8.26-80.09c3.78-.55 6.69-3.8 6.69-7.73 0-4.31-3.5-7.81-7.81-7.81-4.32 0-7.81 3.51-7.81 7.81 0 3.94 2.94 7.21 6.74 7.73l-8.25 79.96-17.1-72.53c3.29-.93 5.71-3.93 5.71-7.51 0-4.32-3.51-7.81-7.82-7.81s-7.81 3.5-7.81 7.81 3.5 7.8 7.81 7.8h.11l4.14 74.33-25.8-55.25c2.52-1.3 4.24-3.92 4.24-6.94 0-4.3-3.5-7.81-7.81-7.81s-7.81 3.51-7.81 7.81c0 4.31 3.5 7.8 7.81 7.8" fill="#9b7a33"/><g fill="#00623e"><path d="m186.58 247.51c-1.26 1.89-2.84 3.56-4.67 4.93-2.99 2.37-6.41 3.76-10.05 3.91-.7.07-1.42.12-2.15.12s-1.45-.04-2.15-.12c-3.63-.15-7.06-1.54-10.05-3.91-1.84-1.37-3.43-3.04-4.68-4.93-4.21-5.81-6.84-13.98-6.84-23.04 0-8.51 2.33-16.24 6.09-21.96 2.1-3.76 5.42-6.75 9.47-8.5.03-.01.06-.03.09-.04.2-.08.39-.16.59-.22.54-.22 1.08-.42 1.64-.58 1.85-.55 3.81-.83 5.83-.83 2.04 0 3.99.29 5.84.83.55.16 1.1.35 1.64.56.2.07.39.16.59.24.03.02.06.03.09.04 4.03 1.75 7.36 4.74 9.47 8.5 3.77 5.72 6.09 13.45 6.09 21.96.01 9.06-2.62 17.23-6.84 23.04m-16.86-63.14c-22.4 0-40.57 18.19-40.57 40.02 0 21.85 18.17 40.03 40.57 40.03s40.57-18.18 40.57-40.03c-.01-21.83-18.17-40.02-40.57-40.02"/><path d="m290.66 232.73h-5.64v11.29c-.17 6.75-5.69 12.19-12.48 12.19-.02 0-.05 0-.07 0v.02h-17.19-6.52v-63.39h10.88v-5.65h-10.88-1.2-27.13v5.65h10.88v63.39h-10.88v5.64h64.6 4.77.45.41v-.01h.03v-18.45h-.03z"/><path d="m376.36 187.21h-.08-.38-17.38-56.02v5.65h10.66v63.41h-10.66v5.65.01h56.01 12.57 4.81.38.08.38v-18.43-8.46h-5.65v8.9h-.01c-.08 6.83-5.65 12.35-12.49 12.35h-.07v.02h-20.14v-.02h-7.55-.22v-30.47-1h5.65c.06 0 .1.01.16.01h3.15c5.06.05 9.14 4.15 9.14 9.22 0 .07-.01.14-.01.2h.01v2.93 1.2h5.15v-.77-12.79-.04-4.58-.03-12.79-.26h-5.14v3.62h-.01c0 .06.01.14.01.21 0 5.06-4.09 8.68-9.16 8.72h-3.31-3.51-2.15v-26.79h.22 16.08.27 11.46c6.82.03 12.36 5.55 12.44 12.35h.01v7.66h5.65v-7.23-18.41-.03z"/><path d="m473.23 256.5c-5.42-.14-6.69-1.83-10.88-6.62l-24.73-30.78 16.35-19.53v.01c4.4-5.03 5.61-6.75 11.25-6.85h3.5.77v-5.45h-.77-16.07-.75-11.8-.75v5.45h.75 5.87v.01h.01c1.43 0 2.59 1.15 2.59 2.56 0 .56-.18 1.07-.49 1.49l-14.49 17.29-11.39-14.17-2.38-3.01c-.35-.44-.58-.99-.58-1.6 0-1.42 1.15-2.56 2.56-2.57h6.48v-5.45h-11.53-16.83-9.35v5.45h1.79c4.81.23 6.2 1.87 9.98 6.2l21.89 27.24-19.7 23.53-.01-.04c-4.4 5.02-5.6 6.74-11.27 6.85h-3.44-1.17v5.45h1.17 18.65 1.17 10.09 1.17v-5.45h-1.17-6.76v-.02c-.01 0-.01.01-.02.01-1.42 0-2.57-1.15-2.57-2.58 0-.6.22-1.15.58-1.59l17.5-20.9 14.55 18.11 2.21 2.78c.35.45.57.98.57 1.6 0 1.43-1.15 2.57-2.57 2.57 0 0 0 0-.01 0v.01h-6.97v5.44h.04v.01h40.59v-5.45z"/><path d="m81.52 220h-18.19v-27.32h18.18c7.83.31 14.08 5.75 14.08 13.65 0 7.92-6.25 13.34-14.07 13.67m34.83 36.14-4.95-14.35c-2.31-6.39-3.94-9.25-7.56-12.56-2.38-2.12-5.7-3.14-8.15-3.85 9.18-1.46 16.19-9.43 16.19-19.02 0-10.62-8.61-19.26-19.27-19.26-.11 0-.22.01-.35.01v-.01h-28.97-17.45-10.5v5.6h10.5v63.47h-10.7v5.64h28v.01h10.89v-5.65h-10.74v-30.48h8.34c.27.01.51.02.78.02h1.69c2.66.11 4.97.5 7.05 1.09 1.92.48 3.97 1.16 5.33 2.03 1.85 1.19 3.81 2.85 5.53 5.81.45.78.85 1.56 1.23 2.36 3.17 5.98 5.08 14.26 7.19 24.78h12.85v.02h11.58v-5.65z"/></g></svg>